<?xml version="1.0" encoding="UTF-8"?>
<svg width="264px" height="56px" viewBox="0 0 264 56" version="1.1" xmlns="http://www.w3.org/2000/svg" xmlns:xlink="http://www.w3.org/1999/xlink">
    <title>Logo</title>
    <defs>
        <polygon id="path-1" points="0 0 264 0 264 56 0 56"></polygon>
    </defs>
    <g id="Symbols" stroke="none" stroke-width="1" fill="none" fill-rule="evenodd">
        <g id="Logo">
            <mask id="mask-2" fill="white">
                <use xlink:href="#path-1"></use>
            </mask>
            <g id="Clip-2"></g>
            <path d="M74.1869225,53.9997238 L261.98493,53.9997238 L261.98493,2.00027622 L74.1869225,2.00027622 L74.1869225,53.9997238 Z M2.01507011,53.9997238 L72.1718524,53.9997238 L72.1718524,2.00027622 L2.01507011,2.00027622 L2.01507011,53.9997238 Z M0,56 L264,56 L264,0 L0,0 L0,56 Z M102.462199,28.2745667 C101.594701,27.6679097 100.671675,27.2990816 99.8046642,26.9563566 L99.6926347,26.92977 C99.0774465,26.6924246 98.4895351,26.4555625 97.9586125,26.1650439 C97.3711882,25.8489055 96.8953063,25.4273876 96.5601919,24.9265935 C96.1398376,24.2933499 96.1680886,23.4498308 96.6434834,22.685588 C97.1193653,21.8947586 98.0146273,21.3939645 98.9094022,21.3939645 C99.9162066,21.3939645 101.175321,21.9474484 101.538686,23.028313 L101.706731,23.5556937 L104.000413,22.8436572 L103.832369,22.3167599 C103.049624,20.1018576 100.811469,19.1268559 98.9094022,19.1268559 C97.1193653,19.1268559 95.4408708,20.0496513 94.517845,21.5786203 C93.6508339,23.028313 93.6508339,24.7153511 94.517845,26.0862509 C95.0210037,26.9036669 95.7764723,27.5891168 96.7555129,28.1164975 C97.427203,28.4592224 98.1261697,28.7487743 98.7696089,29.0127063 C98.9094022,29.0914992 99.0491956,29.1446723 99.1889889,29.1968787 C99.860679,29.4608107 100.503631,29.7242594 101.035528,30.0930875 C101.734982,30.5677785 102.070583,31.2532284 102.070583,32.1760238 C102.070583,33.7571991 100.867483,34.7331676 98.9371661,34.7331676 C97.398952,34.7331676 96.3921476,33.8630619 96.3921476,32.570955 L96.3921476,32.0179546 L93.9859483,32.0179546 L93.9859483,32.570955 C93.9859483,35.1280989 96.056059,37.0002762 98.9371661,37.0002762 C100.476354,37.0002762 101.818273,36.578275 102.825565,35.7347559 C103.916635,34.8912368 104.475808,33.652303 104.475808,32.1760238 C104.475808,30.5677785 103.776841,29.1968787 102.462199,28.2745667 L102.462199,28.2745667 Z M114.098657,36.8417236 L123.581225,36.8417236 L123.581225,34.5750984 L116.504369,34.5750984 L116.504369,30.2516401 L122.854007,30.2516401 L122.854007,27.9579449 L116.504369,27.9579449 L116.504369,21.5520337 L123.581225,21.5520337 L123.581225,19.2849251 L114.098657,19.2849251 L114.098657,36.8417236 Z M137.169919,32.3592293 L143.723646,32.3592293 L140.420723,25.295905 L137.169919,32.3592293 Z M136.110022,34.6611422 L135.10614,36.8417236 L132.50462,36.8417236 L140.392959,19.2849251 L148.393328,36.8417236 L145.819572,36.8417236 L144.800103,34.6611422 L136.110022,34.6611422 Z M166.966849,30.7524342 L161.14862,19.2849251 L157.204694,36.8417236 L159.63817,36.8417236 L161.960103,27.2463918 L166.966849,36.8417236 L172.086111,27.1932187 L174.379793,36.8417236 L176.813269,36.8417236 L172.86983,19.2849251 L166.966849,30.7524342 Z M194.073122,30.805124 L198.716502,30.805124 L198.716502,33.5469236 C197.849004,34.0477177 196.869963,34.3638561 195.890923,34.4692356 C194.044871,34.7331676 192.198332,34.2584766 190.688369,33.1515089 C189.205683,32.0701609 188.254406,30.5150887 188.002583,28.7753608 C187.499424,25.136869 190.212487,21.8154824 194.100399,21.3412748 C195.667351,21.1300325 197.289343,21.4727574 198.660487,22.2640702 L199.164133,22.5541054 L200.42276,20.6031351 L199.946878,20.3130999 C198.073063,19.2583385 195.890923,18.8107175 193.765284,19.0741661 C191.275793,19.3907879 189.037638,20.6031351 187.499424,22.4748291 C185.960723,24.3726262 185.28952,26.6924246 185.625122,29.0649126 C185.960723,31.4378841 187.247114,33.520337 189.233446,34.9700297 C190.88369,36.1828603 192.870022,36.8156205 194.967897,36.8156205 C195.387277,36.8156205 195.77938,36.7890339 196.19876,36.7368276 C197.82124,36.5521718 199.33169,35.9721014 200.590804,35.049306 L201.093963,34.706581 L201.093963,28.5380153 L194.073122,28.5380153 L194.073122,30.805124 Z M211.107941,36.8417236 L220.590996,36.8417236 L220.590996,34.5750984 L213.51414,34.5750984 L213.51414,30.2516401 L219.863779,30.2516401 L219.863779,27.9579449 L213.51414,27.9579449 L213.51414,21.5520337 L220.590996,21.5520337 L220.590996,19.2849251 L211.107941,19.2849251 L211.107941,36.8417236 Z M240.591675,30.0930875 L230.325875,19.2849251 L230.325875,36.8417236 L232.7311,36.8417236 L232.7311,26.0862509 L242.9969,36.8417236 L242.9969,19.2849251 L240.591675,19.2849251 L240.591675,30.0930875 Z M37.2824502,16.0002762 L13.0991734,25.8044334 L37.2824502,35.6095574 L48.1132694,31.2189075 L50.6353948,30.1950832 L53.5277048,29.0228575 L56.4205018,30.1950832 L53.5277048,31.3682757 L51.0050923,32.3911332 L37.2824502,37.9544921 L15.621786,29.1727091 L13.0991734,30.1950832 L37.281476,40.0002072 L37.2834244,40.0002072 L53.5277048,33.4139907 L56.0508044,32.3911332 L61.4657269,30.1950832 L56.0508044,28 L61.4657269,25.8044334 L37.2824502,16.0002762 Z M18.1439114,25.8044334 L37.2824502,18.0455079 L56.4205018,25.8044334 L53.5277048,26.9776259 L51.0050923,28 L48.1132694,29.1727091 L37.2824502,24.7820593 L29.3458893,28.0004834 L31.8675277,29.0228575 L37.2824502,26.8277743 L45.5906568,30.1950832 L37.2824502,33.5638423 L23.5598081,28 L37.2824502,22.4371245 L48.1137565,26.8282577 L50.6358819,25.8044334 L37.2824502,20.390926 L21.0376827,26.9776259 L18.1439114,25.8044334 Z" id="Fill-1" fill="#FFFFFF" mask="url(#mask-2)"></path>
        </g>
    </g>
</svg>